<svg xmlns="http://www.w3.org/2000/svg" width="18px" height="18px" viewBox="0 0 18 18" version="1.1" xmlns:xlink="https://www.w3.org/1999/xlink">
    <title>Search Icon</title>
    <g id="Symbols" stroke="none" stroke-width="1" fill="none" fill-rule="evenodd">
        <g id="0-Nav/Desktop/Header/Default" transform="translate(-136.000000, -11.000000)" fill="#FFFFFF">
            <g id="7-Icons/search/light" transform="translate(136.000000, 11.000000)">
                <path d="M13.2799713,7.91931437 C13.2799713,9.36240007 12.7152856,10.7218286 11.7113999,11.7257143 C10.7075142,12.7505143 9.34808564,13.3152 7.90499994,13.3152 C6.46191424,13.3152 5.10248568,12.7505143 4.09859997,11.7257143 C2.00717142,9.63428578 2.00717142,6.22525724 4.09859997,4.1129144 C5.12339996,3.08811441 6.46191424,2.5234287 7.90499994,2.5234287 C9.32717136,2.5234287 10.6865999,3.08811441 11.7113999,4.1129144 C12.7152856,5.11680011 13.2799713,6.47622867 13.2799713,7.91931437 M17.7137999,16.4523429 L13.6145999,12.3531429 C15.8105999,9.52971436 15.5596284,5.38868582 13.0289999,2.85805727 C11.6695713,1.47771443 9.85002849,0.745714431 7.92591423,0.745714431 C6.00179996,0.745714431 4.18225711,1.49862871 2.82282855,2.85805727 C1.46339999,4.19657154 0.7314,6.01611439 0.7314,7.94022866 C0.7314,9.86434293 1.48431428,11.6838858 2.84374284,13.0433143 C4.18225711,14.3818286 6.00179996,15.1347429 7.92591423,15.1347429 C9.51539993,15.1347429 11.0839713,14.6118857 12.3597428,13.6289143 L16.4380284,17.7281143 C16.6053427,17.8954286 16.8353999,18 17.065457,18 C17.2955141,18 17.5255713,17.8954286 17.6928856,17.7281143 C18.0693427,17.3516571 18.0693427,16.8078857 17.7137999,16.4523429" id="Page-1"/>
            </g>
        </g>
    </g>
</svg>