<svg width="135" height="70" viewBox="0 0 135 70" xmlns="http://www.w3.org/2000/svg" xmlns:xlink="http://www.w3.org/1999/xlink">
  <defs>
    <path id="a" d="M.008 69.45H134.94V.036H.008z"/>
  </defs>
  <mask id="b" fill="#fff">
    <use xlink:href="#a"/>
  </mask>
  <path d="M13.793 31.8h10.142l1.352 5.21c1.157 4.46 5.798 8.97 12.732 12.37 8.04 3.947 18.46 6.12 29.34 6.12s21.3-2.173 29.35-6.12c6.93-3.4 11.57-7.91 12.73-12.37l1.35-5.21h10.34V14.02H13.79V31.8zm53.575 37.65c-12.94 0-25.512-2.67-35.404-7.525C23.48 57.762 17.248 52.25 13.92 45.86H0V.036h134.94V45.86h-14.124c-3.33 6.39-9.56 11.902-18.044 16.065-9.892 4.854-22.465 7.526-35.404 7.526z" fill="#FFBF22" mask="url(#b)"/>
  <path d="M9.807 35.818H20.86l.572 2.21c1.473 5.677 6.744 10.992 14.843 14.966C44.85 57.2 55.893 59.52 67.368 59.52c11.475 0 22.518-2.32 31.093-6.526 8.1-3.974 13.37-9.29 14.85-14.967l.58-2.21h11.26V10.003H9.81V35.82zm57.56 29.615c-24.715 0-45.545-9.84-50.898-23.7H3.95V4.163h127.036v37.57h-12.72c-5.354 13.862-26.184 23.7-50.9 23.7z" fill="#FFF"/>
  <path d="M6.775 7.008v31.88h11.82c3.478 13.405 23.99 23.588 48.773 23.588 24.785 0 45.295-10.325 48.773-23.73h11.89V7.006H6.78z" fill="#004D41"/>
  <path d="M16.92 26.835c0 2.292 1.815 3.34 3.677 3.34 2.612 0 3.797-1.73 3.797-3.145 0-1.243-.628-1.755-1.403-2.316-.48-.342-3.11-1.683-3.7-2-2.22-1.268-3.11-2.487-3.11-4.267 0-1.243.49-2.828 1.62-3.828 1.07-.98 2.64-1.27 4.09-1.27.78 0 1.86.12 2.61.22.75.09 1 .07 1.33.05-.19 1.51-.21 1.92-.17 3.75h-1.04c-.05-2.56-1.96-3.03-3.12-3.03-1.91 0-3.43 1.24-3.43 2.97 0 1.83 1.45 2.63 2.95 3.34l1.86.85c1.82.82 3.44 1.85 3.44 4.26 0 2.63-1.79 5.49-5.92 5.49-1.09 0-3.7-.39-4.54-.44.05-.71.1-1.44.1-2.15 0-.64-.02-1.25-.07-1.86h1.07m14.1-2.15c-1.38.56-1.88 1.68-1.88 2.65 0 1.14.7 2.17 2.08 2.17 1.28 0 2.06-.93 2.32-1.37.71-1.15.71-2.66.71-3.83-1.04-.03-2.2-.05-3.22.36zm5.37 1.39c0 2.31 0 3.48 1.16 3.48.32 0 .53-.14.8-.31l.41.63c-1.14.83-1.72 1.24-2.69 1.24-1.81 0-1.81-2.02-1.81-3.05-.29.7-1.28 3.04-4.08 3.04-2.49 0-3.38-1.81-3.38-3.3 0-1.66.92-2.71 2.08-3.37 1.6-.88 3.43-.92 5.37-.97 0-2.02-.03-2.68-.41-3.19-.48-.64-1.33-.64-1.57-.64-1.4 0-2.68.802-3.65 1.85l-.62-1.1c1.02-.73 3.17-2.29 5.59-2.29 1.16 0 2.2.39 2.64 1.32.22.483.22 1.02.22 1.63l-.05 5.023z" fill="#FFF"/>
  <path d="M38.25 19.423c1.38-.05 2.54-.317 3.604-1.268l.604.243c-.12 1.317-.12 1.586-.12 2.707.41-.56.822-1.146 1.45-1.658 1.088-.878 2.54-1.268 3.603-1.268 3.08 0 3.15 2.56 3.17 3.53v6.39c-.02 1.41.34 1.85 2.01 1.92v.9c-1.09-.05-2.15-.1-3.24-.1-.99 0-1.79.05-2.9.1v-.9c1.91-.05 1.99-.76 1.99-2.17v-5.34c0-.61-.02-1.32-.34-1.86-.31-.54-1.08-1.03-2.08-1.03-1.04 0-2.13.51-2.78 1.34-.75.93-.75 1.58-.77 3.46v2.88c.03 1.95.03 2.66 2.01 2.73v.88c-1.06-.05-2.15-.1-3.24-.1-.97 0-1.81.05-2.97.09V30c2.01-.095 2.06-.66 2.08-2.44v-3.92c0-3.364-.02-3.413-2.05-3.413v-.83m20.17-.17c-1.18 0-2 .39-2.46.756-1.16.93-1.59 2.88-1.59 4.54 0 3.17 1.55 5.17 3.61 5.17.9 0 2.13-.49 2.88-1.976.34-.68.56-1.17.56-4.533 0-1.097-.02-2.17-.05-3.267-.65-.27-1.62-.688-2.93-.688zm.39-6.486c2.25-.05 3.24-.3 4.45-1.44l.56.29c-.07.51-.12.97-.17 1.56-.14 1.66-.14 9.17-.14 11.39 0 .47 0 3.66.03 3.88 0 .29.07 1.07.87 1.07.32 0 .73-.14 1.02-.24l.17.88c-1.86.34-2.32.49-3.92 1.2l-.41-.24c.15-1.46.15-2.19.12-3.02-1.01 1.95-2.44 3.12-4.52 3.12-2.8 0-4.71-2.46-4.71-5.95 0-4.02 2.59-7.07 6.97-7.07.9 0 1.72.15 2.27.27 0-.73-.02-2.88-.07-3.51-.05-.8-.24-1.29-1.26-1.29h-1.24v-.88z" fill="#FFF"/>
  <path d="M73.14 22.836c0-.95.05-3.706-2.66-3.706-1.112 0-2.828.585-3.216 3.706h5.877zm2.323 6.29c-.75.61-2.565 2.098-5.055 2.098-2.853 0-5.344-2.146-5.344-6.218 0-4.047 2.418-6.85 5.924-6.85 4.57 0 4.57 4.583 4.57 5.826h-8.366c-.05 5.316 3.603 5.608 4.4 5.608 1.815 0 2.88-.902 3.46-1.414l.41.95zM80.3 18.423c-.122 1.292-.17 1.707-.195 3.218.363-.8 1.427-3.09 4.257-3.46l.507.51c-.13 1.35-.15 1.66-.17 3h-.92c-.15-.73-.49-1.22-1.28-1.22-.58 0-1.31.42-1.72 1.13-.63 1-.63 2.37-.63 3.32v3.42c.05 1.49.67 1.66 2.8 1.66v.95c-1.36-.04-2.4-.09-3.58-.09-1.12 0-2.25.05-3.39.1v-.92c1.62-.02 1.96-.44 2.01-1.51v-6.64c-.03-1.41-.46-1.41-2.01-1.41v-.83c1.59-.12 2.59-.46 3.7-1.41l.6.22m13.08-.05c-.1.69-.17 1.08-.17 2.03 0 .49.02.95.02 1.42h-.87c-.05-.63-.1-1.41-.85-2.07-.73-.66-1.53-.68-1.87-.68-1.6 0-2.52 1.03-2.52 2.07 0 1.29.97 1.66 3.6 2.66 1.01.39 2.95 1.22 2.95 3.56 0 1.42-.87 3.88-4.79 3.88-1.16 0-2.93-.29-3.8-.29.07-.63.12-1.27.12-1.9 0-.56-.05-1.15-.09-1.73l.89.02c.12.71.48 3 3.14 2.98 1.47.02 2.54-.85 2.54-2 0-1.41-1.53-2.02-3.22-2.71-1.23-.49-3.19-1.27-3.19-3.49 0-2.09 1.55-3.95 4.62-3.95.67 0 2.37.2 2.83.22h.62m3.09 5.95c0 2.76.82 5.78 3.74 5.78 3.63 0 3.63-4.36 3.63-5.04 0-2.58-.99-6-3.92-5.85-2.58.13-3.45 2.61-3.45 5.12zm9.81.08c0 4.32-2.97 6.83-6.57 6.83-.46 0-1.93-.05-3.07-.73-1.21-.71-2.57-2.39-2.57-5.44 0-4.12 2.68-6.8 6.5-6.95 4.28-.17 5.71 3.32 5.71 6.29z" fill="#FFF"/>
  <path d="M105.97 19.423c1.378-.05 2.54-.317 3.603-1.268l.604.243c-.12 1.317-.12 1.586-.12 2.707.41-.56.822-1.146 1.45-1.658 1.09-.878 2.54-1.268 3.605-1.268 3.07 0 3.143 2.56 3.167 3.53v6.39c-.03 1.41.33 1.85 2 1.92v.9c-1.09-.05-2.16-.1-3.24-.1-1 0-1.79.05-2.91.1v-.9c1.91-.05 1.98-.76 1.98-2.17v-5.34c0-.61-.03-1.32-.34-1.86-.32-.54-1.09-1.03-2.08-1.03-1.05 0-2.13.51-2.79 1.34-.75.93-.75 1.58-.78 3.46v2.88c.02 1.95.02 2.66 2.01 2.73v.88c-1.07-.05-2.16-.1-3.24-.1-.97 0-1.82.05-2.98.09V30c2-.095 2.05-.66 2.08-2.44v-3.92c0-3.364-.03-3.413-2.06-3.413v-.83m-68.9 14.58c2.25.1 4.52.17 6.77.17 2.46 0 3.77-.095 5.17-.17-.17 1.465-.22 1.88-.17 3.66h-.97c-.02-2.244-.89-2.536-3.29-2.536-.87 0-1.76.04-2.66.12-.07 1.12-.07 1.29-.09 2.44v4.31h2.3c1.88-.03 2.8-.03 2.8-2.22h.97c0 1.05-.05 2.07-.05 3.12 0 .76.03 1.51.05 2.27h-.94c-.02-2.02-1.04-2.12-2.37-2.14H41.8v3.76c.026 1.88.05 2.44.388 2.9.435.61 1.016.61 2.153.61v.98c-1.26-.05-2.51-.12-3.77-.12-1.16 0-2.2.05-3.53.12v-.97c2.11-.05 2.37-.17 2.45-4.02v-7.58c-.02-3.49-.29-3.71-2.44-3.71v-.98M51.73 45c-1.38.56-1.886 1.682-1.886 2.658 0 1.147.704 2.17 2.08 2.17 1.284 0 2.058-.925 2.324-1.365.7-1.146.7-2.658.7-3.83-1.037-.023-2.2-.047-3.214.367zm5.37 1.39c0 2.316 0 3.487 1.16 3.487.314 0 .53-.147.797-.317l.41.634c-1.134.83-1.715 1.243-2.682 1.243-1.81 0-1.81-2.02-1.81-3.046-.29.71-1.282 3.05-4.086 3.05-2.49 0-3.39-1.8-3.39-3.29 0-1.66.92-2.7 2.08-3.36 1.59-.88 3.43-.93 5.37-.97 0-2.02-.03-2.68-.41-3.19-.49-.63-1.33-.63-1.58-.63-1.41 0-2.69.81-3.65 1.86l-.61-1.12c1.01-.73 3.17-2.29 5.59-2.29 1.16 0 2.2.39 2.63 1.32.21.49.21 1.03.21 1.64l-.05 5.02z" fill="#FFF"/>
  <path d="M63.045 38.742c-.12 1.292-.17 1.706-.194 3.218.37-.804 1.43-3.096 4.26-3.462l.51.512c-.12 1.34-.14 1.658-.17 3h-.92c-.14-.733-.48-1.22-1.28-1.22-.58 0-1.3.415-1.72 1.122-.63 1-.63 2.365-.63 3.315v3.414c.05 1.49.68 1.66 2.81 1.66v.95c-1.35-.05-2.39-.09-3.58-.09-1.11 0-2.25.05-3.38.1v-.92c1.62-.02 1.96-.44 2.01-1.51v-6.64c-.02-1.41-.46-1.41-2.01-1.41v-.83c1.6-.12 2.59-.46 3.7-1.41l.61.22m4.77 1.03c1.55-.09 2.61-.58 3.61-1.31l.61.26-.09 2.56c.85-1.41 2.37-2.78 4.76-2.78 2.81 0 2.86 1.86 2.88 2.54 1.35-2.07 3.19-2.53 4.43-2.53 3.12 0 3.12 2.05 3.12 3v7.24c0 .71.03 1.56 2.06 1.61v.9c-1.06-.05-2.12-.09-3.16-.09s-2.1.05-3.14.09v-.93c1.98-.05 2.03-.8 2.08-1.61V42.5c-.03-.56-.08-1.29-.37-1.68-.29-.416-.8-.856-1.67-.856-.65 0-1.38.17-2.05.635-1.18.8-1.25 1.75-1.28 3.31v4.73c.03.83.12 1.66 2.03 1.7v.92c-1.01-.05-2.03-.1-3.04-.1-1.06 0-2.13.05-3.19.1v-.93c1.74-.1 1.98-.61 2.03-1.51v-6.34c0-.54-.02-1.46-.48-1.97-.26-.29-.72-.59-1.45-.59-.43 0-1.13.09-1.84.48-1.57.9-1.57 2.39-1.59 3.61v4.56c.03.85.05 1.68 2.03 1.75v.92c-.99-.05-2.01-.1-3-.1-1.09 0-2.15.04-3.21.09v-.927c1.98-.1 2-.806 2-1.83v-5.4c-.02-2.51-.05-2.51-2.03-2.56v-.78m30.01-1.07c-.1.68-.17 1.07-.17 2.022 0 .484.03.95.03 1.41h-.87c-.05-.63-.1-1.41-.85-2.07-.72-.66-1.52-.683-1.86-.683-1.595 0-2.514 1.028-2.514 2.076 0 1.29.97 1.654 3.604 2.654 1.02.39 2.95 1.22 2.95 3.56 0 1.412-.87 3.875-4.79 3.875-1.16 0-2.93-.29-3.8-.29.07-.63.12-1.266.12-1.9 0-.56-.05-1.146-.1-1.73l.9.02c.12.71.48 3 3.14 2.97 1.48.02 2.54-.86 2.54-2 0-1.42-1.52-2.03-3.21-2.71-1.236-.49-3.194-1.27-3.194-3.49 0-2.1 1.55-3.95 4.62-3.95.68 0 2.37.19 2.83.22h.63m3.07 1.08h.37c.24 0 .42-.04.42-.3 0-.23-.242-.27-.434-.27h-.35v.56zm-.42-.89h.8c.53 0 .82.16.82.63 0 .39-.24.54-.56.57l.57.93h-.44l-.512-.91h-.26V41h-.42v-2.13zm.75 2.57c.78 0 1.42-.64 1.42-1.51s-.64-1.5-1.423-1.5c-.79 0-1.423.63-1.423 1.49 0 .87.63 1.5 1.42 1.5zm0-3.41c1.02 0 1.94.74 1.94 1.9s-.92 1.91-1.94 1.91c-1.03 0-1.94-.75-1.94-1.91s.91-1.9 1.94-1.9z" fill="#FFF"/>
</svg>
