<svg xmlns="http://www.w3.org/2000/svg" width="19px" height="32px" viewBox="0 0 19 32" version="1.1" xmlns:xlink="https://www.w3.org/1999/xlink">
    <g stroke="none" stroke-width="1" fill="none" fill-rule="evenodd">
        <g transform="translate(-167.000000, -2281.000000)" fill="#FFFFFF" fill-rule="nonzero" stroke="#FFFFFF" stroke-width="4">
            <g transform="translate(121.000000, 2060.000000)">
                <g transform="translate(30.000000, 129.000000)">
                    <path d="M19.171875,121.661133 C19.2773438,121.661133 19.387207,121.63916 19.5014648,121.595215 C19.6157227,121.55127 19.7167969,121.485352 19.8046875,121.397461 L19.8046875,121.397461 L32.4609375,108.714844 C32.5488281,108.626953 32.6147461,108.530273 32.6586914,108.424805 C32.7026367,108.319336 32.7246094,108.209473 32.7246094,108.095215 C32.7246094,107.980957 32.7026367,107.866699 32.6586914,107.752441 C32.6147461,107.638184 32.5488281,107.537109 32.4609375,107.449219 L32.4609375,107.449219 L19.9892578,94.9511719 C19.8134766,94.7753906 19.5981445,94.6875 19.3432617,94.6875 C19.0883789,94.6875 18.8730469,94.7753906 18.6972656,94.9511719 C18.5917969,95.0742188 18.5170898,95.2104492 18.4731445,95.3598633 C18.4291992,95.5092773 18.4291992,95.6630859 18.4731445,95.8212891 C18.5170898,95.9794922 18.5917969,96.1201172 18.6972656,96.2431641 L18.6972656,96.2431641 L30.5625,108.082031 L18.5126953,120.131836 C18.3369141,120.307617 18.2490234,120.518555 18.2490234,120.764648 C18.2490234,121.010742 18.3413086,121.22168 18.5258789,121.397461 C18.7104492,121.573242 18.9257812,121.661133 19.171875,121.661133 Z" transform="translate(25.486816, 108.174316) rotate(-180.000000) translate(-25.486816, -108.174316) "/>
                </g>
            </g>
        </g>
    </g>
</svg>